<svg width="249" height="47" viewBox="0 0 249 47" fill="none" xmlns="http://www.w3.org/2000/svg">
<rect x="107" width="142" height="47" rx="10" fill="white"/>
<path d="M18.4705 29.74H25.3105V34H12.7705L18.4705 29.74ZM1.52051 22.99C1.52051 21.47 1.81051 20.03 2.39051 18.67C2.97051 17.31 3.77051 16.11 4.79051 15.07C5.83051 14.01 7.03051 13.18 8.39051 12.58C9.75051 11.98 11.2105 11.68 12.7705 11.68C14.3105 11.68 15.7605 11.98 17.1205 12.58C18.4805 13.18 19.6805 14.01 20.7205 15.07C21.7805 16.11 22.6005 17.31 23.1805 18.67C23.7805 20.03 24.0805 21.47 24.0805 22.99C24.0805 24.55 23.7805 26.01 23.1805 27.37C22.6005 28.73 21.7805 29.93 20.7205 30.97C19.6805 31.99 18.4805 32.79 17.1205 33.37C15.7605 33.95 14.3105 34.24 12.7705 34.24C11.2105 34.24 9.75051 33.95 8.39051 33.37C7.03051 32.79 5.83051 31.99 4.79051 30.97C3.77051 29.93 2.97051 28.73 2.39051 27.37C1.81051 26.01 1.52051 24.55 1.52051 22.99ZM6.02051 22.99C6.02051 23.95 6.19051 24.86 6.53051 25.72C6.89051 26.56 7.38051 27.31 8.00051 27.97C8.64051 28.61 9.37051 29.11 10.1905 29.47C11.0305 29.83 11.9405 30.01 12.9205 30.01C13.8605 30.01 14.7305 29.83 15.5305 29.47C16.3505 29.11 17.0605 28.61 17.6605 27.97C18.2605 27.33 18.7305 26.59 19.0705 25.75C19.4105 24.89 19.5805 23.97 19.5805 22.99C19.5805 22.03 19.4005 21.13 19.0405 20.29C18.7005 19.43 18.2205 18.68 17.6005 18.04C17.0005 17.4 16.2905 16.9 15.4705 16.54C14.6505 16.18 13.7605 16 12.8005 16C11.8405 16 10.9505 16.18 10.1305 16.54C9.31051 16.9 8.59051 17.4 7.97051 18.04C7.35051 18.68 6.87051 19.43 6.53051 20.29C6.19051 21.13 6.02051 22.03 6.02051 22.99ZM33.5479 25.84C33.5479 26.54 33.7579 27.21 34.1779 27.85C34.5979 28.49 35.1479 29.01 35.8279 29.41C36.5279 29.81 37.2879 30.01 38.1079 30.01C39.0079 30.01 39.8079 29.81 40.5079 29.41C41.2079 29.01 41.7579 28.49 42.1579 27.85C42.5779 27.21 42.7879 26.54 42.7879 25.84V11.92H47.0779V25.93C47.0779 27.55 46.6779 28.99 45.8779 30.25C45.0779 31.49 43.9979 32.47 42.6379 33.19C41.2779 33.89 39.7679 34.24 38.1079 34.24C36.4679 34.24 34.9679 33.89 33.6079 33.19C32.2679 32.47 31.1979 31.49 30.3979 30.25C29.5979 28.99 29.1979 27.55 29.1979 25.93V11.92H33.5479V25.84ZM52.3236 11.92H56.6736V34H52.3236V11.92ZM78.9325 32.17C78.6925 32.37 78.2425 32.64 77.5825 32.98C76.9425 33.32 76.1525 33.62 75.2125 33.88C74.2725 34.14 73.2325 34.26 72.0925 34.24C70.3525 34.2 68.7925 33.89 67.4125 33.31C66.0525 32.71 64.8925 31.9 63.9325 30.88C62.9925 29.86 62.2725 28.69 61.7725 27.37C61.2725 26.05 61.0225 24.64 61.0225 23.14C61.0225 21.46 61.2725 19.92 61.7725 18.52C62.2925 17.12 63.0225 15.91 63.9625 14.89C64.9225 13.87 66.0625 13.08 67.3825 12.52C68.7025 11.96 70.1625 11.68 71.7625 11.68C73.2425 11.68 74.5525 11.88 75.6925 12.28C76.8325 12.68 77.7625 13.11 78.4825 13.57L76.7725 17.68C76.2725 17.3 75.6025 16.91 74.7625 16.51C73.9425 16.09 72.9925 15.88 71.9125 15.88C71.0725 15.88 70.2625 16.06 69.4825 16.42C68.7225 16.76 68.0425 17.25 67.4425 17.89C66.8625 18.53 66.4025 19.28 66.0625 20.14C65.7225 20.98 65.5525 21.9 65.5525 22.9C65.5525 23.96 65.7025 24.93 66.0025 25.81C66.3225 26.69 66.7725 27.45 67.3525 28.09C67.9325 28.71 68.6225 29.19 69.4225 29.53C70.2425 29.87 71.1625 30.04 72.1825 30.04C73.3625 30.04 74.3725 29.85 75.2125 29.47C76.0525 29.09 76.6925 28.69 77.1325 28.27L78.9325 32.17ZM87.7004 19.78L87.5804 20.89L88.2404 20.05L95.4404 11.92H101.08L91.9604 21.82L101.11 34H95.5904L88.7804 24.58L87.7004 25.66V34H83.2904V11.92H87.7004V19.78Z" fill="white"/>
<path d="M120.859 11.92C122.679 11.92 124.219 12.23 125.479 12.85C126.739 13.45 127.699 14.31 128.359 15.43C129.019 16.53 129.349 17.84 129.349 19.36C129.349 20.26 129.209 21.17 128.929 22.09C128.669 22.99 128.239 23.81 127.639 24.55C127.059 25.29 126.269 25.89 125.269 26.35C124.289 26.79 123.079 27.01 121.639 27.01H118.519V34H114.169V11.92H120.859ZM121.609 22.78C122.269 22.78 122.819 22.67 123.259 22.45C123.699 22.21 124.039 21.92 124.279 21.58C124.539 21.22 124.719 20.85 124.819 20.47C124.939 20.09 124.999 19.76 124.999 19.48C124.999 19.26 124.959 18.97 124.879 18.61C124.819 18.23 124.679 17.85 124.459 17.47C124.239 17.09 123.899 16.77 123.439 16.51C122.999 16.25 122.399 16.12 121.639 16.12H118.519V22.78H121.609ZM139.932 11.92C141.312 11.92 142.542 12.1 143.622 12.46C144.702 12.8 145.602 13.3 146.322 13.96C147.062 14.6 147.622 15.38 148.002 16.3C148.382 17.2 148.572 18.22 148.572 19.36C148.572 20.26 148.432 21.16 148.152 22.06C147.892 22.96 147.452 23.78 146.832 24.52C146.232 25.26 145.432 25.86 144.432 26.32C143.432 26.76 142.192 26.98 140.712 26.98H137.592V34H133.242V11.92H139.932ZM140.682 22.78C141.342 22.78 141.892 22.67 142.332 22.45C142.772 22.23 143.112 21.95 143.352 21.61C143.612 21.27 143.792 20.92 143.892 20.56C144.012 20.18 144.072 19.83 144.072 19.51C144.072 19.27 144.032 18.97 143.952 18.61C143.892 18.23 143.752 17.85 143.532 17.47C143.312 17.09 142.972 16.77 142.512 16.51C142.072 16.25 141.472 16.12 140.712 16.12H137.592V22.78H140.682ZM144.762 25.48L150.222 34H145.152L139.572 25.6L144.762 25.48ZM151.696 22.99C151.696 21.47 151.986 20.03 152.566 18.67C153.146 17.31 153.946 16.11 154.966 15.07C156.006 14.01 157.206 13.18 158.566 12.58C159.926 11.98 161.386 11.68 162.946 11.68C164.486 11.68 165.936 11.98 167.296 12.58C168.656 13.18 169.856 14.01 170.896 15.07C171.956 16.11 172.776 17.31 173.356 18.67C173.956 20.03 174.256 21.47 174.256 22.99C174.256 24.55 173.956 26.01 173.356 27.37C172.776 28.73 171.956 29.93 170.896 30.97C169.856 31.99 168.656 32.79 167.296 33.37C165.936 33.95 164.486 34.24 162.946 34.24C161.386 34.24 159.926 33.95 158.566 33.37C157.206 32.79 156.006 31.99 154.966 30.97C153.946 29.93 153.146 28.73 152.566 27.37C151.986 26.01 151.696 24.55 151.696 22.99ZM156.196 22.99C156.196 23.97 156.366 24.89 156.706 25.75C157.066 26.59 157.556 27.34 158.176 28C158.816 28.64 159.546 29.14 160.366 29.5C161.206 29.86 162.116 30.04 163.096 30.04C164.036 30.04 164.906 29.86 165.706 29.5C166.526 29.14 167.236 28.64 167.836 28C168.436 27.34 168.906 26.59 169.246 25.75C169.586 24.89 169.756 23.97 169.756 22.99C169.756 21.99 169.576 21.06 169.216 20.2C168.876 19.34 168.396 18.59 167.776 17.95C167.176 17.29 166.466 16.78 165.646 16.42C164.826 16.06 163.936 15.88 162.976 15.88C162.016 15.88 161.126 16.06 160.306 16.42C159.486 16.78 158.766 17.29 158.146 17.95C157.526 18.59 157.046 19.34 156.706 20.2C156.366 21.06 156.196 21.99 156.196 22.99ZM178.593 11.92H192.393V16.12H182.943V21.13H191.133V25.33H182.943V34H178.593V11.92ZM196.581 11.92H200.931V34H196.581V11.92ZM206.63 11.92H210.98V29.8H221.36V34H206.63V11.92ZM225.849 11.92H240.909V16.12H230.199V20.83H239.679V25.03H230.199V29.8H241.329V34H225.849V11.92Z" fill="black"/>
</svg>
