<svg width="34" height="34" viewBox="0 0 34 34" fill="none" xmlns="http://www.w3.org/2000/svg">
<path d="M9.91663 9.91669H8.49996C7.74851 9.91669 7.02784 10.2152 6.49649 10.7466C5.96514 11.2779 5.66663 11.9986 5.66663 12.75V25.5C5.66663 26.2515 5.96514 26.9721 6.49649 27.5035C7.02784 28.0348 7.74851 28.3334 8.49996 28.3334H21.25C22.0014 28.3334 22.7221 28.0348 23.2534 27.5035C23.7848 26.9721 24.0833 26.2515 24.0833 25.5V24.0834" stroke="#F8F8F8" stroke-width="2.16667" stroke-linecap="round" stroke-linejoin="round"/>
<path d="M22.6667 7.08336L26.9167 11.3334M28.8788 9.32878C29.4367 8.77083 29.7502 8.01409 29.7502 7.22503C29.7502 6.43597 29.4367 5.67923 28.8788 5.12128C28.3208 4.56333 27.5641 4.24988 26.775 4.24988C25.9859 4.24988 25.2292 4.56333 24.6713 5.12128L12.75 17V21.25H17L28.8788 9.32878Z" stroke="#F8F8F8" stroke-width="2.16667" stroke-linecap="round" stroke-linejoin="round"/>
</svg>
