<svg width="20" height="20" viewBox="0 0 20 20" fill="none" xmlns="http://www.w3.org/2000/svg">
<path d="M15 9.01667C14.7789 9.01667 14.567 9.10447 14.4107 9.26075C14.2544 9.41703 14.1666 9.62899 14.1666 9.85V15.8333C14.1666 16.0543 14.0788 16.2663 13.9225 16.4226C13.7663 16.5789 13.5543 16.6667 13.3333 16.6667H4.16663C3.94561 16.6667 3.73365 16.5789 3.57737 16.4226C3.42109 16.2663 3.33329 16.0543 3.33329 15.8333V6.66667C3.33329 6.44565 3.42109 6.23369 3.57737 6.07741C3.73365 5.92113 3.94561 5.83333 4.16663 5.83333H10.15C10.371 5.83333 10.5829 5.74554 10.7392 5.58926C10.8955 5.43298 10.9833 5.22102 10.9833 5C10.9833 4.77899 10.8955 4.56703 10.7392 4.41075C10.5829 4.25447 10.371 4.16667 10.15 4.16667H4.16663C3.50358 4.16667 2.8677 4.43006 2.39886 4.8989C1.93002 5.36774 1.66663 6.00363 1.66663 6.66667V15.8333C1.66663 16.4964 1.93002 17.1323 2.39886 17.6011C2.8677 18.0699 3.50358 18.3333 4.16663 18.3333H13.3333C13.9963 18.3333 14.6322 18.0699 15.1011 17.6011C15.5699 17.1323 15.8333 16.4964 15.8333 15.8333V9.85C15.8333 9.62899 15.7455 9.41703 15.5892 9.26075C15.4329 9.10447 15.221 9.01667 15 9.01667ZM18.2666 2.18333C18.1821 1.97971 18.0203 1.8179 17.8166 1.73333C17.7164 1.69063 17.6089 1.66798 17.5 1.66667H12.5C12.2789 1.66667 12.067 1.75447 11.9107 1.91075C11.7544 2.06703 11.6666 2.27899 11.6666 2.5C11.6666 2.72102 11.7544 2.93298 11.9107 3.08926C12.067 3.24554 12.2789 3.33333 12.5 3.33333H15.4916L6.90829 11.9083C6.83019 11.9858 6.76819 12.078 6.72588 12.1795C6.68358 12.2811 6.66179 12.39 6.66179 12.5C6.66179 12.61 6.68358 12.7189 6.72588 12.8205C6.76819 12.922 6.83019 13.0142 6.90829 13.0917C6.98576 13.1698 7.07793 13.2318 7.17948 13.2741C7.28103 13.3164 7.38995 13.3382 7.49996 13.3382C7.60997 13.3382 7.71889 13.3164 7.82044 13.2741C7.92199 13.2318 8.01416 13.1698 8.09163 13.0917L16.6666 4.50833V7.5C16.6666 7.72102 16.7544 7.93298 16.9107 8.08926C17.067 8.24554 17.2789 8.33333 17.5 8.33333C17.721 8.33333 17.9329 8.24554 18.0892 8.08926C18.2455 7.93298 18.3333 7.72102 18.3333 7.5V2.5C18.332 2.3911 18.3093 2.28352 18.2666 2.18333Z" fill="#F8F8F8"/>
</svg>
