<svg width="11" height="11" viewBox="0 0 11 11" fill="none" xmlns="http://www.w3.org/2000/svg">
<path d="M5.70739 0.583332C5.03448 0.583332 4.36815 0.715872 3.74647 0.973384C3.12478 1.2309 2.5599 1.60834 2.08408 2.08416C1.12311 3.04512 0.583252 4.34846 0.583252 5.70747C0.583252 7.97233 2.05388 9.89389 4.08816 10.5754C4.34437 10.6164 4.42635 10.4575 4.42635 10.3192V9.45321C3.00697 9.76066 2.70464 8.76658 2.70464 8.76658C2.46893 8.17218 2.13586 8.01333 2.13586 8.01333C1.66957 7.69563 2.17173 7.70588 2.17173 7.70588C2.68415 7.74175 2.95573 8.23367 2.95573 8.23367C3.40153 9.01253 4.15477 8.78195 4.44685 8.65897C4.49297 8.3259 4.62619 8.10044 4.76967 7.97233C3.63211 7.84423 2.43819 7.40356 2.43819 5.45126C2.43819 4.88248 2.63291 4.42643 2.96597 4.06262C2.91473 3.93452 2.73539 3.40161 3.01722 2.70985C3.01722 2.70985 3.44764 2.5715 4.42635 3.23251C4.83116 3.11978 5.27184 3.06341 5.70739 3.06341C6.14294 3.06341 6.58361 3.11978 6.98842 3.23251C7.96713 2.5715 8.39756 2.70985 8.39756 2.70985C8.67939 3.40161 8.50004 3.93452 8.4488 4.06262C8.78187 4.42643 8.97658 4.88248 8.97658 5.45126C8.97658 7.40868 7.77754 7.83911 6.63486 7.96721C6.81932 8.12606 6.98842 8.43863 6.98842 8.91518V10.3192C6.98842 10.4575 7.07041 10.6215 7.33174 10.5754C9.36602 9.88876 10.8315 7.97233 10.8315 5.70747C10.8315 5.03456 10.699 4.36823 10.4415 3.74655C10.184 3.12486 9.80652 2.55998 9.3307 2.08416C8.85488 1.60834 8.29 1.2309 7.66831 0.973384C7.04662 0.715872 6.3803 0.583332 5.70739 0.583332Z" fill="#1A120B"/>
</svg>
