<svg width="11" height="11" viewBox="0 0 11 11" fill="none" xmlns="http://www.w3.org/2000/svg">
<path d="M5.99969 3.66979C4.70975 3.66979 3.66979 4.71974 3.66979 5.99969C3.66979 7.27963 4.71974 8.32958 5.99969 8.32958C7.27963 8.32958 8.32958 7.27963 8.32958 5.99969C8.32958 4.71974 7.27963 3.66979 5.99969 3.66979ZM12.9994 5.99969C12.9994 5.02973 12.9994 4.07977 12.9494 3.10982C12.8994 1.98987 12.6394 0.989911 11.8194 0.179947C10.9995 -0.640016 10.0095 -0.900005 8.88956 -0.950002C7.9196 -1 6.96964 -1 5.99969 -1C5.02973 -1 4.07977 -1 3.10982 -0.950002C1.98987 -0.900005 0.989911 -0.640016 0.179947 0.179947C-0.640016 0.999911 -0.900005 1.98987 -0.950002 3.10982C-1 4.07977 -1 5.02973 -1 5.99969C-1 6.96964 -1 7.9196 -0.950002 8.88956C-0.900005 10.0095 -0.640016 11.0095 0.179947 11.8194C0.999911 12.6394 1.98987 12.8994 3.10982 12.9494C4.07977 12.9994 5.02973 12.9994 5.99969 12.9994C6.96964 12.9994 7.9196 12.9994 8.88956 12.9494C10.0095 12.8994 11.0095 12.6394 11.8194 11.8194C12.6394 10.9995 12.8994 10.0095 12.9494 8.88956C13.0094 7.9296 12.9994 6.96964 12.9994 5.99969ZM5.99969 9.58953C4.00978 9.58953 2.40985 7.9896 2.40985 5.99969C2.40985 4.00978 4.00978 2.40985 5.99969 2.40985C7.9896 2.40985 9.58953 4.00978 9.58953 5.99969C9.58953 7.9896 7.9896 9.58953 5.99969 9.58953ZM9.73952 3.09982C9.27954 3.09982 8.89956 2.72983 8.89956 2.25985C8.89956 1.78988 9.26954 1.41989 9.73952 1.41989C10.2095 1.41989 10.5795 1.78988 10.5795 2.25985C10.582 2.36939 10.562 2.47827 10.5207 2.57976C10.4795 2.68124 10.4178 2.77316 10.3395 2.84983C10.2628 2.9281 10.1709 2.98979 10.0694 3.03107C9.96793 3.07235 9.85905 3.09235 9.74952 3.08982L9.73952 3.09982Z" fill="#1A120B"/>
</svg>
