<svg width="14" height="14" viewBox="0 0 14 14" fill="none" xmlns="http://www.w3.org/2000/svg">
<path d="M6.99969 4.66979C5.70975 4.66979 4.66979 5.71974 4.66979 6.99969C4.66979 8.27963 5.71974 9.32958 6.99969 9.32958C8.27963 9.32958 9.32958 8.27963 9.32958 6.99969C9.32958 5.71974 8.27963 4.66979 6.99969 4.66979ZM13.9994 6.99969C13.9994 6.02973 13.9994 5.07977 13.9494 4.10982C13.8994 2.98987 13.6394 1.98991 12.8194 1.17995C11.9995 0.359984 11.0095 0.0999955 9.88956 0.0499977C8.9196 -4.86771e-08 7.96964 0 6.99969 0C6.02973 0 5.07977 -4.86771e-08 4.10982 0.0499977C2.98987 0.0999955 1.98991 0.359984 1.17995 1.17995C0.359984 1.99991 0.0999955 2.98987 0.0499977 4.10982C-4.86771e-08 5.07977 0 6.02973 0 6.99969C0 7.96964 -4.86771e-08 8.9196 0.0499977 9.88956C0.0999955 11.0095 0.359984 12.0095 1.17995 12.8194C1.99991 13.6394 2.98987 13.8994 4.10982 13.9494C5.07977 13.9994 6.02973 13.9994 6.99969 13.9994C7.96964 13.9994 8.9196 13.9994 9.88956 13.9494C11.0095 13.8994 12.0095 13.6394 12.8194 12.8194C13.6394 11.9995 13.8994 11.0095 13.9494 9.88956C14.0094 8.9296 13.9994 7.96964 13.9994 6.99969ZM6.99969 10.5895C5.00978 10.5895 3.40985 8.9896 3.40985 6.99969C3.40985 5.00978 5.00978 3.40985 6.99969 3.40985C8.9896 3.40985 10.5895 5.00978 10.5895 6.99969C10.5895 8.9896 8.9896 10.5895 6.99969 10.5895ZM10.7395 4.09982C10.2795 4.09982 9.89956 3.72983 9.89956 3.25985C9.89956 2.78988 10.2695 2.41989 10.7395 2.41989C11.2095 2.41989 11.5795 2.78988 11.5795 3.25985C11.582 3.36939 11.562 3.47827 11.5207 3.57976C11.4795 3.68124 11.4178 3.77316 11.3395 3.84983C11.2628 3.9281 11.1709 3.98979 11.0694 4.03107C10.9679 4.07235 10.8591 4.09235 10.7495 4.08982L10.7395 4.09982Z" fill="#F8F8F8"/>
</svg>
