<svg width="15" height="15" viewBox="0 0 15 15" fill="none" xmlns="http://www.w3.org/2000/svg">
<path d="M3.6225 11.25H5.805C5.29236 10.8609 4.89138 10.3435 4.6425 9.75H3.75C3.15326 9.75 2.58097 9.51295 2.15901 9.09099C1.73705 8.66903 1.5 8.09674 1.5 7.5C1.5 6.90326 1.73705 6.33097 2.15901 5.90901C2.58097 5.48705 3.15326 5.25 3.75 5.25H6C6.35942 5.25101 6.71337 5.33811 7.03222 5.50401C7.35106 5.66991 7.62552 5.90978 7.83262 6.20354C8.03972 6.4973 8.17344 6.8364 8.22256 7.19245C8.27169 7.54849 8.23481 7.91113 8.115 8.25H9.69C9.72794 8.04462 9.74802 7.83634 9.75 7.6275V7.3725C9.75 6.41175 9.36835 5.49036 8.68899 4.81101C8.00964 4.13166 7.08825 3.75 6.1275 3.75H3.6225C2.66175 3.75 1.74036 4.13166 1.06101 4.81101C0.381655 5.49036 0 6.41175 0 7.3725L0 7.6275C0 8.58825 0.381655 9.50964 1.06101 10.189C1.74036 10.8683 2.66175 11.25 3.6225 11.25Z" fill="#150E09"/>
<path d="M11.3775 3.75H9.195C9.70764 4.1391 10.1086 4.65649 10.3575 5.25H11.25C11.8467 5.25 12.419 5.48705 12.841 5.90901C13.2629 6.33097 13.5 6.90326 13.5 7.5C13.5 8.09674 13.2629 8.66903 12.841 9.09099C12.419 9.51295 11.8467 9.75 11.25 9.75H9C8.64058 9.74899 8.28663 9.66189 7.96778 9.49599C7.64894 9.33009 7.37448 9.09022 7.16738 8.79646C6.96028 8.5027 6.82656 8.1636 6.77744 7.80755C6.72831 7.45151 6.76519 7.08887 6.885 6.75H5.31C5.27206 6.95538 5.25198 7.16366 5.25 7.3725V7.6275C5.25 8.58825 5.63165 9.50964 6.31101 10.189C6.99036 10.8683 7.91175 11.25 8.8725 11.25H11.3775C11.8532 11.25 12.3243 11.1563 12.7638 10.9743C13.2033 10.7922 13.6026 10.5254 13.939 10.189C14.2754 9.85261 14.5422 9.45327 14.7243 9.01377C14.9063 8.57427 15 8.10321 15 7.6275V7.3725C15 6.89679 14.9063 6.42573 14.7243 5.98623C14.5422 5.54673 14.2754 5.14739 13.939 4.81101C13.6026 4.47463 13.2033 4.20779 12.7638 4.02575C12.3243 3.8437 11.8532 3.75 11.3775 3.75Z" fill="#150E09"/>
</svg>
