<svg width="13" height="13" viewBox="0 0 13 13" fill="none" xmlns="http://www.w3.org/2000/svg">
<path d="M3.33752 2.125C3.33736 2.45652 3.2055 2.7744 2.97097 3.0087C2.73643 3.243 2.41842 3.37454 2.0869 3.37437C1.75538 3.37421 1.4375 3.24235 1.2032 3.00782C0.968896 2.77328 0.837359 2.45527 0.837525 2.12375C0.83769 1.79223 0.969545 1.47435 1.20408 1.24005C1.43862 1.00575 1.75663 0.874209 2.08815 0.874375C2.41967 0.87454 2.73755 1.0064 2.97185 1.24093C3.20615 1.47547 3.33769 1.79348 3.33752 2.125ZM3.37502 4.3H0.875025V12.125H3.37502V4.3ZM7.32502 4.3H4.83752V12.125H7.30002V8.01875C7.30002 5.73125 10.2813 5.51875 10.2813 8.01875V12.125H12.75V7.16875C12.75 3.3125 8.33752 3.45625 7.30002 5.35L7.32502 4.3Z" fill="#F8F8F8"/>
</svg>
