<svg width="11" height="11" viewBox="0 0 11 11" fill="none" xmlns="http://www.w3.org/2000/svg">
<path d="M2.7592 1.70833C2.75905 1.99564 2.64478 2.27114 2.44151 2.4742C2.23825 2.67726 1.96264 2.79126 1.67532 2.79112C1.388 2.79097 1.11251 2.6767 0.909447 2.47343C0.706384 2.27017 0.592386 1.99456 0.592529 1.70724C0.592673 1.41992 0.706947 1.14443 0.910213 0.941369C1.11348 0.738306 1.38909 0.624307 1.6764 0.624451C1.96372 0.624594 2.23922 0.738869 2.44228 0.942135C2.64534 1.1454 2.75934 1.42101 2.7592 1.70833ZM2.7917 3.59333H0.625029V10.375H2.7917V3.59333ZM6.21503 3.59333H4.0592V10.375H6.19336V6.81624C6.19336 4.83374 8.77711 4.64958 8.77711 6.81624V10.375H10.9167V6.07958C10.9167 2.73749 7.09253 2.86208 6.19336 4.50333L6.21503 3.59333Z" fill="#1A120B"/>
</svg>
