<svg width="28" height="28" viewBox="0 0 28 28" fill="none" xmlns="http://www.w3.org/2000/svg">
<path d="M10.7917 25.6666L10.325 21.9333C10.0722 21.8361 9.83386 21.7194 9.60986 21.5833C9.38586 21.4472 9.1673 21.3014 8.95419 21.1458L5.48336 22.6041L2.27502 17.0625L5.27919 14.7875C5.25975 14.6514 5.25002 14.5199 5.25002 14.3931V13.6068C5.25002 13.48 5.25975 13.3486 5.27919 13.2125L2.27502 10.9375L5.48336 5.39581L8.95419 6.85415C9.16808 6.69859 9.39169 6.55276 9.62503 6.41665C9.85836 6.28054 10.0917 6.16387 10.325 6.06665L10.7917 2.33331H17.2084L17.675 6.06665C17.9278 6.16387 18.1662 6.28054 18.3902 6.41665C18.6142 6.55276 18.8327 6.69859 19.0459 6.85415L22.5167 5.39581L25.725 10.9375L22.7209 13.2125C22.7403 13.3486 22.75 13.48 22.75 13.6068V14.3931C22.75 14.5199 22.7306 14.6514 22.6917 14.7875L25.6959 17.0625L22.4875 22.6041L19.0459 21.1458C18.832 21.3014 18.6084 21.4472 18.375 21.5833C18.1417 21.7194 17.9084 21.8361 17.675 21.9333L17.2084 25.6666H10.7917ZM14.0584 18.0833C15.1861 18.0833 16.1486 17.6847 16.9459 16.8875C17.7431 16.0903 18.1417 15.1278 18.1417 14C18.1417 12.8722 17.7431 11.9097 16.9459 11.1125C16.1486 10.3153 15.1861 9.91665 14.0584 9.91665C12.9111 9.91665 11.9436 10.3153 11.1557 11.1125C10.3678 11.9097 9.97425 12.8722 9.97503 14C9.97503 15.1278 10.3686 16.0903 11.1557 16.8875C11.9428 17.6847 12.9104 18.0833 14.0584 18.0833Z" fill="#F8F8F8"/>
</svg>
