<svg width="15" height="13" viewBox="0 0 15 13" fill="none" xmlns="http://www.w3.org/2000/svg">
<path d="M15 1.43402C14.4479 1.68498 13.8528 1.84989 13.2361 1.92876C13.8671 1.54874 14.3547 0.946447 14.5841 0.22226C13.989 0.580769 13.3294 0.831725 12.6338 0.975128C12.0674 0.358493 11.2715 -1.52588e-05 10.3681 -1.52588e-05C8.68308 -1.52588e-05 7.30641 1.37666 7.30641 3.07599C7.30641 3.31977 7.33509 3.55639 7.38528 3.77867C4.8327 3.6496 2.55975 2.4235 1.04685 0.566428C0.781549 1.01815 0.630975 1.54874 0.630975 2.10802C0.630975 3.17637 1.16874 4.12283 2.00048 4.6606C1.4914 4.6606 1.01816 4.51719 0.602295 4.30209V4.3236C0.602295 5.81499 1.66348 7.0626 3.06883 7.34224C2.61763 7.46572 2.14395 7.4829 1.68499 7.39243C1.87974 8.00368 2.26114 8.53852 2.77559 8.92178C3.29003 9.30504 3.91165 9.51745 4.55306 9.52915C3.4658 10.3899 2.11807 10.8551 0.731358 10.8485C0.487572 10.8485 0.243786 10.8341 0 10.8054C1.36233 11.6802 2.98279 12.1893 4.71797 12.1893C10.3681 12.1893 13.4728 7.49999 13.4728 3.4345C13.4728 3.29826 13.4728 3.1692 13.4656 3.03297C14.0679 2.60276 14.5841 2.05782 15 1.43402Z" fill="#F8F8F8"/>
</svg>
