<svg width="11" height="9" viewBox="0 0 11 9" fill="none" xmlns="http://www.w3.org/2000/svg">
<path d="M11 1.05882C10.5951 1.24412 10.1587 1.36588 9.7065 1.42412C10.1692 1.14353 10.5268 0.698824 10.695 0.164118C10.2586 0.428824 9.77486 0.614118 9.26482 0.72C8.84943 0.264706 8.26578 0 7.60325 0C6.36759 0 5.35803 1.01647 5.35803 2.27118C5.35803 2.45118 5.37906 2.62588 5.41587 2.79C3.54398 2.69471 1.87715 1.78941 0.767687 0.418235C0.573136 0.751765 0.462715 1.14353 0.462715 1.55647C0.462715 2.34529 0.857075 3.04412 1.46702 3.44118C1.09369 3.44118 0.746654 3.33529 0.441683 3.17647V3.19235C0.441683 4.29353 1.21989 5.21471 2.25048 5.42118C1.9196 5.51235 1.57223 5.52503 1.23566 5.45824C1.37847 5.90955 1.65817 6.30445 2.03543 6.58743C2.41269 6.87042 2.86854 7.02725 3.33891 7.03588C2.54158 7.67141 1.55325 8.01493 0.536329 8.01C0.357553 8.01 0.178776 7.99941 0 7.97824C0.999044 8.62412 2.18738 9 3.45985 9C7.60325 9 9.88002 5.53765 9.88002 2.53588C9.88002 2.43529 9.88002 2.34 9.87476 2.23941C10.3164 1.92176 10.695 1.51941 11 1.05882Z" fill="#1A120B"/>
</svg>
