<svg width="25" height="25" viewBox="0 0 25 25" fill="none" xmlns="http://www.w3.org/2000/svg">
<path d="M11.4584 20.8333H6.77091C5.18758 20.8333 3.83689 20.2882 2.71883 19.1979C1.60078 18.1007 1.04175 16.7639 1.04175 15.1875C1.04175 13.8333 1.448 12.625 2.2605 11.5625C3.07994 10.5 4.14939 9.82291 5.46883 9.53124C5.90633 7.93402 6.77439 6.64235 8.073 5.65624C9.37855 4.66318 10.8542 4.16666 12.5001 4.16666C14.5348 4.16666 16.257 4.87499 17.6667 6.29166C19.0834 7.70138 19.7917 9.4236 19.7917 11.4583C20.9931 11.5972 21.9862 12.118 22.7709 13.0208C23.5626 13.9097 23.9584 14.9514 23.9584 16.1458C23.9584 17.4514 23.5036 18.559 22.5938 19.4687C21.6841 20.3785 20.5765 20.8333 19.2709 20.8333H13.5417V13.3854L15.2084 15L16.6667 13.5417L12.5001 9.37499L8.33341 13.5417L9.79175 15L11.4584 13.3854V20.8333Z" fill="#150E09"/>
</svg>
