<svg width="14" height="10" viewBox="0 0 14 10" fill="none" xmlns="http://www.w3.org/2000/svg">
<path d="M5.6 7.00001L9.233 4.90001L5.6 2.80001V7.00001ZM13.692 1.51902C13.783 1.84802 13.846 2.28901 13.888 2.84901C13.937 3.40901 13.958 3.89201 13.958 4.31201L14 4.90001C14 6.43301 13.888 7.56001 13.692 8.28101C13.517 8.91101 13.111 9.31701 12.481 9.49201C12.152 9.58301 11.55 9.64601 10.626 9.68801C9.716 9.73701 8.883 9.75801 8.113 9.75801L7 9.80001C4.067 9.80001 2.24 9.68801 1.519 9.49201C0.889 9.31701 0.483 8.91101 0.308 8.28101C0.217 7.95201 0.154 7.51101 0.112 6.95101C0.0630001 6.39101 0.042 5.90801 0.042 5.48801L0 4.90001C0 3.36701 0.112 2.24002 0.308 1.51902C0.483 0.889015 0.889 0.483015 1.519 0.308015C1.848 0.217015 2.45 0.154015 3.374 0.112015C4.284 0.0630151 5.117 0.0420152 5.887 0.0420152L7 1.52588e-05C9.933 1.52588e-05 11.76 0.112015 12.481 0.308015C13.111 0.483015 13.517 0.889015 13.692 1.51902Z" fill="#F8F8F8"/>
</svg>
