<svg width="12" height="10" viewBox="0 0 12 10" fill="none" xmlns="http://www.w3.org/2000/svg">
<path d="M4.6 7.00001L8.233 4.90001L4.6 2.80001V7.00001ZM12.692 1.51902C12.783 1.84802 12.846 2.28901 12.888 2.84901C12.937 3.40901 12.958 3.89201 12.958 4.31201L13 4.90001C13 6.43301 12.888 7.56001 12.692 8.28101C12.517 8.91101 12.111 9.31701 11.481 9.49201C11.152 9.58301 10.55 9.64601 9.626 9.68801C8.716 9.73701 7.883 9.75801 7.113 9.75801L6 9.80001C3.067 9.80001 1.24 9.68801 0.519 9.49201C-0.111 9.31701 -0.517 8.91101 -0.692 8.28101C-0.783 7.95201 -0.846 7.51101 -0.888 6.95101C-0.937 6.39101 -0.958 5.90801 -0.958 5.48801L-1 4.90001C-1 3.36701 -0.888 2.24002 -0.692 1.51902C-0.517 0.889015 -0.111 0.483015 0.519 0.308015C0.848 0.217015 1.45 0.154015 2.374 0.112015C3.284 0.0630151 4.117 0.0420152 4.887 0.0420152L6 1.52588e-05C8.933 1.52588e-05 10.76 0.112015 11.481 0.308015C12.111 0.483015 12.517 0.889015 12.692 1.51902Z" fill="#1A120B"/>
</svg>
